<?xml version="1.0" encoding="UTF-8"?>
<svg version="1.1" xmlns="http://www.w3.org/2000/svg" width="256" height="256">
<path d="M0 0 C1.08708252 -0.0065712 2.17416504 -0.0131424 3.29418945 -0.01991272 C6.88574298 -0.03959247 10.4772547 -0.05129945 14.06884766 -0.0612793 C15.91720655 -0.06739259 15.91720655 -0.06739259 17.80290604 -0.07362938 C23.65912568 -0.09232654 29.51532907 -0.10689339 35.37157285 -0.11524135 C41.42263743 -0.1240134 47.47344958 -0.14322346 53.52441406 -0.1796875 C60.04123381 -0.21832157 66.55782653 -0.23694883 73.07475662 -0.24144554 C75.54562248 -0.24628536 78.01648547 -0.25782392 80.48728561 -0.27648354 C96.99662133 -0.39336676 112.60933406 -0.10932676 127.48291016 7.98950195 C128.47629395 8.51205566 128.47629395 8.51205566 129.48974609 9.04516602 C145.08754712 17.41119009 156.78008781 28.56961461 165.10791016 44.17700195 C165.58873047 45.0690332 166.06955078 45.96106445 166.56494141 46.88012695 C174.61011598 63.11631008 174.70730865 79.3939519 174.63916016 97.11450195 C174.64186137 99.60921377 174.645749 102.10392456 174.65075684 104.59863281 C174.6566222 109.80291868 174.64818473 115.00692815 174.62939453 120.21118164 C174.60660739 126.84122223 174.6197464 133.47061482 174.64368439 140.10063171 C174.6582226 145.24488093 174.65349971 150.38897959 174.64317322 155.53323364 C174.64052807 157.97616658 174.64369663 160.41911373 174.65309143 162.86203003 C174.70226662 179.2378637 174.32460292 194.80462834 166.29541016 209.55200195 C165.94776611 210.21353271 165.60012207 210.87506348 165.24194336 211.55664062 C154.46642867 231.66160526 137.57761706 246.30703877 115.74134827 253.24694824 C102.6842091 256.88087884 89.7570194 256.76063872 76.29150391 256.70825195 C73.82064156 256.71095374 71.34978026 256.71484184 68.87892151 256.71984863 C63.7276893 256.72571021 58.57673655 256.71728824 53.42553711 256.69848633 C46.86390427 256.67568733 40.30292577 256.68884811 33.7413168 256.71277618 C28.64768146 256.72731447 23.55419816 256.72259168 18.46055794 256.71226501 C16.04274478 256.70962051 13.62491724 256.71278608 11.2071209 256.72218323 C-15.27305142 256.80255763 -37.74187929 251.90977853 -57.80615234 233.29418945 C-73.68885575 217.17354292 -82.0091913 196.85560036 -82.0690918 174.39257812 C-82.07566299 173.31685547 -82.08223419 172.24113281 -82.08900452 171.1328125 C-82.1086847 167.57853109 -82.12039203 164.02429196 -82.13037109 160.4699707 C-82.13444662 159.25001215 -82.13852215 158.0300536 -82.14272118 156.7731266 C-82.16356525 150.30855099 -82.17787092 143.84399645 -82.18725586 137.37939453 C-82.19727481 130.74028314 -82.23264239 124.10147858 -82.27242756 117.46247387 C-82.29872838 112.32592701 -82.30695989 107.18945898 -82.31053734 102.05285072 C-82.31537311 99.60793091 -82.32689975 97.1630139 -82.34557533 94.71816063 C-82.46413661 78.16026747 -82.30507606 61.6311796 -74.07958984 46.73950195 C-73.7312207 46.08175781 -73.38285156 45.42401367 -73.02392578 44.74633789 C-65.13175471 30.13253614 -54.53124533 18.23286858 -39.89208984 10.17700195 C-39.08255859 9.7180957 -38.27302734 9.25918945 -37.43896484 8.78637695 C-25.51227559 2.39982723 -13.37626026 0.03528729 0 0 Z " fill="#078AF1" transform="translate(81.89208984375,-0.177001953125)"/>
<path d="M0 0 C4.32380898 2.26038604 6.8950928 4.9301192 8.92578125 9.31640625 C9.40828651 13.61070304 9.39328114 17.71911497 8.17578125 21.87890625 C7.81825859 25.36475223 9.24879848 27.67291283 10.8203125 30.7421875 C13.95162618 38.03383314 14.2637875 44.92348842 14.23828125 52.75390625 C14.25439453 53.73939453 14.27050781 54.72488281 14.28710938 55.74023438 C14.29136705 62.16506253 13.39056023 67.38725574 10.92578125 73.31640625 C10.50039062 74.35667969 10.075 75.39695312 9.63671875 76.46875 C6.07929023 83.88526034 1.77172399 89.55054492 -4.07421875 95.31640625 C-5.04875 96.30640625 -5.04875 96.30640625 -6.04296875 97.31640625 C-11.10589791 102.13033889 -16.57926132 104.84781168 -23.07421875 107.31640625 C-24.62689453 107.90808594 -24.62689453 107.90808594 -26.2109375 108.51171875 C-35.94777182 111.87086786 -46.28904634 113.23047521 -56.07421875 109.31640625 C-58.07421875 107.31640625 -58.07421875 107.31640625 -58.38671875 104.31640625 C-58.28359375 103.32640625 -58.18046875 102.33640625 -58.07421875 101.31640625 C-54.63865219 99.02602854 -52.87281973 99.24852761 -48.86669922 99.44702148 C-35.42842349 100.09393198 -23.33845028 97.22333877 -12.95703125 88.14453125 C-12.33570313 87.54125 -11.714375 86.93796875 -11.07421875 86.31640625 C-10.45289063 85.73375 -9.8315625 85.15109375 -9.19140625 84.55078125 C0.59343155 74.46943321 3.4124181 62.08132934 3.2265625 48.4921875 C3.00439709 43.5304934 1.60869279 39.1818822 -0.19921875 34.57421875 C-1.07421875 32.31640625 -1.07421875 32.31640625 -1.07421875 30.31640625 C-2.06421875 30.64640625 -3.05421875 30.97640625 -4.07421875 31.31640625 C-9.81742026 31.85821771 -12.5847118 30.90801181 -17.07421875 27.31640625 C-21.34499455 23.63879375 -22.82805246 20.53190286 -23.44921875 14.94140625 C-22.85829042 9.22909905 -20.6751252 5.76484542 -16.44921875 1.94140625 C-11.4642573 -1.46935685 -5.79520588 -1.90990778 0 0 Z " fill="#F8FCFE" transform="translate(172.07421875,75.68359375)"/>
<path d="M0 0 C1 1 1 1 1.25 3.875 C1 7 1 7 -0.25952148 8.68359375 C-2.41555183 10.31430151 -3.42555017 10.31727513 -6.09765625 10.1875 C-6.89429688 10.16187988 -7.6909375 10.13625977 -8.51171875 10.10986328 C-9.35347656 10.0736084 -10.19523437 10.03735352 -11.0625 10 C-18.23378707 9.85909709 -24.36871806 9.96592993 -31 13 C-32.34771484 13.60328125 -32.34771484 13.60328125 -33.72265625 14.21875 C-46.67333396 20.63174034 -53.99453577 30.70907684 -59 44 C-61.39278374 54.41328788 -60.7283539 64.79267278 -56.875 74.70703125 C-56 77 -56 77 -56 79 C-55.12988281 78.83951172 -55.12988281 78.83951172 -54.2421875 78.67578125 C-48.88031161 77.85291911 -45.6056576 77.72486571 -41 81 C-34.20982493 87.90175072 -34.20982493 87.90175072 -33.6875 93.125 C-34.17007041 99.10887308 -36.21403418 103.30115446 -40.5625 107.4375 C-45.42809349 110.55647019 -50.37946898 110.75054132 -56 110 C-60.01395207 108.27228779 -62.40557275 105.82452812 -64.9375 102.3125 C-66.47342134 97.52403934 -67.03255962 91.94583185 -65.3359375 87.10546875 C-64.81104108 83.81571093 -66.12360172 81.47611626 -67.375 78.4375 C-67.83648437 77.30183594 -68.29796875 76.16617188 -68.7734375 74.99609375 C-69.17820312 74.00738281 -69.58296875 73.01867187 -70 72 C-74.20714636 59.37856092 -71.60575059 42.72240502 -66 31 C-58.40151779 16.33096983 -46.16048119 5.91749849 -30.5 0.5625 C-20.35013978 -2.5465918 -10.24506569 -3.26412558 0 0 Z " fill="#F9FCFE" transform="translate(141,71)"/>
<path d="M0 0 C4.02015488 2.76193847 7.16694012 6.70166489 8.68359375 11.36328125 C10.04933735 19.04375334 9.29589565 25.77043381 5.046875 32.40625 C1.14711489 36.89754676 -3.41547926 39.07771242 -9.30859375 39.625 C-16.35950458 39.88100887 -20.60825741 38.42872807 -26.640625 34.78125 C-31.17755036 30.12170503 -33.17344061 24.75729365 -33.390625 18.28125 C-33.11529078 12.36156426 -31.47547034 8.12376782 -27.515625 3.65625 C-19.31978375 -3.54009842 -10.08271119 -5.0056013 0 0 Z " fill="#FAFCFE" transform="translate(139.953125,109.59375)"/>
<path d="M0 0 C4.12721653 1.82365381 6.17634619 3.87278347 8 8 C8.43597191 11.48777532 8.2345205 13.46924308 6.8125 16.6875 C3.98901101 20.2898825 1.55837248 21.80520344 -3 22.375 C-7.55837248 21.80520344 -9.98901101 20.2898825 -12.8125 16.6875 C-14.2345205 13.46924308 -14.43597191 11.48777532 -14 8 C-11.22067254 1.70994311 -6.83146591 -0.85393324 0 0 Z " fill="#0B8CF7" transform="translate(131,117)"/>
<path d="M0 0 C2.5625 0.3125 2.5625 0.3125 4.375 1.5 C5.98775784 3.96157776 5.9959014 5.42315736 5.5625 8.3125 C4.4375 10.1875 4.4375 10.1875 2.5625 11.3125 C-0.5 11.1875 -0.5 11.1875 -3.4375 10.3125 C-5.4375 7.3125 -5.4375 7.3125 -5.1875 4.75 C-4.19253762 1.51637226 -3.41216263 0.43745675 0 0 Z " fill="#1390F8" transform="translate(90.4375,159.6875)"/>
<path d="M0 0 C2.9375 0.875 2.9375 0.875 4.9375 3.875 C4.6133631 7.19740324 4.32973697 8.48276303 1.9375 10.875 C-0.90852594 11.23987512 -2.4489306 11.27699375 -4.875 9.6875 C-6.48775784 7.22592224 -6.4959014 5.76434264 -6.0625 2.875 C-4.29035152 -0.0785808 -3.47140412 -0.14168996 0 0 Z " fill="#1390F8" transform="translate(166.0625,85.125)"/>
</svg>
